<svg width="1200" height="360" viewBox="0 0 1200 360" fill="none" xmlns="http://www.w3.org/2000/svg">
  <defs>
    <radialGradient id="bgGrad" cx="0" cy="0" r="1" gradientUnits="userSpaceOnUse" gradientTransform="translate(180 180) rotate(90) scale(140 140)">
      <stop offset="0" stop-color="#1A2535"/>
      <stop offset="1" stop-color="#0D1219"/>
    </radialGradient>
    <radialGradient id="eyeGlow" cx="0" cy="0" r="1" gradientUnits="userSpaceOnUse" gradientTransform="translate(166 170) rotate(90) scale(22 34)">
      <stop offset="0" stop-color="#1D9E75" stop-opacity="0.95"/>
      <stop offset="1" stop-color="#1D9E75" stop-opacity="0"/>
    </radialGradient>
    <radialGradient id="eyeGlowR" cx="0" cy="0" r="1" gradientUnits="userSpaceOnUse" gradientTransform="translate(234 170) rotate(90) scale(22 34)">
      <stop offset="0" stop-color="#1D9E75" stop-opacity="0.95"/>
      <stop offset="1" stop-color="#1D9E75" stop-opacity="0"/>
    </radialGradient>
  </defs>

  <rect x="40" y="40" width="280" height="280" rx="66" fill="url(#bgGrad)"/>
  <rect x="40.5" y="40.5" width="279" height="279" rx="65.5" stroke="#1D9E75" stroke-opacity="0.25"/>

  <ellipse cx="180" cy="196" rx="72" ry="86" fill="#1A2535"/>
  <ellipse cx="180" cy="196" rx="58" ry="74" fill="#1F2D42"/>
  <ellipse cx="180" cy="205" rx="34" ry="42" fill="#E6F0DF" fill-opacity="0.92"/>

  <polygon points="130,106 154,136 120,144" fill="#1F2D42"/>
  <polygon points="230,106 206,136 240,144" fill="#1F2D42"/>

  <circle cx="166" cy="170" r="20" fill="url(#eyeGlow)"/>
  <circle cx="234" cy="170" r="20" fill="url(#eyeGlowR)"/>

  <circle cx="166" cy="170" r="12.5" fill="#0D1219" stroke="#1D9E75" stroke-width="3"/>
  <circle cx="234" cy="170" r="12.5" fill="#0D1219" stroke="#1D9E75" stroke-width="3"/>
  <circle cx="171" cy="165" r="2.7" fill="#5DCAA5"/>
  <circle cx="239" cy="165" r="2.7" fill="#5DCAA5"/>

  <polygon points="180,184 168,201 192,201" fill="#EF9F27"/>
  <path d="M136 246L144 236L152 246" stroke="#EF9F27" stroke-width="4" stroke-linecap="round" stroke-linejoin="round"/>
  <path d="M172 246L180 236L188 246" stroke="#EF9F27" stroke-width="4" stroke-linecap="round" stroke-linejoin="round"/>
  <path d="M208 246L216 236L224 246" stroke="#EF9F27" stroke-width="4" stroke-linecap="round" stroke-linejoin="round"/>

  <path d="M74 280C96 270 112 291 134 281C156 270 174 291 196 281C218 270 236 291 258 281" stroke="#1D9E75" stroke-opacity="0.45" stroke-width="4" stroke-linecap="round"/>

  <text x="370" y="168" fill="#F8FAFC" font-family="SF Pro Display, -apple-system, BlinkMacSystemFont, 'Segoe UI', sans-serif" font-size="108" font-weight="600" letter-spacing="-1.5">Pulse</text>
  <text x="374" y="216" fill="#9CA3AF" font-family="SF Pro Text, -apple-system, BlinkMacSystemFont, 'Segoe UI', sans-serif" font-size="30" font-weight="400" letter-spacing="0.5">your wellness companion</text>

  <circle cx="376" cy="262" r="7" fill="#1D9E75"/>
  <text x="396" y="270" fill="#9CA3AF" font-family="SF Pro Text, -apple-system, BlinkMacSystemFont, 'Segoe UI', sans-serif" font-size="22">Notch-native macOS wellness assistant</text>
</svg>
